HIERARCHY
ROOT Hips
{
	OFFSET 0.00000 0.00000 0.00000
	CHANNELS 6 Xposition Yposition Zposition Zrotation Yrotation Xrotation 
	JOINT LHipJoint
	{
		OFFSET 0 0 0
		CHANNELS 3 Zrotation Yrotation Xrotation
		JOINT LeftUpLeg
		{
			OFFSET 1.82298 -1.58346 0.87084
			CHANNELS 3 Zrotation Yrotation Xrotation
			JOINT LeftLeg
			{
				OFFSET 2.43790 -6.69809 0.00000
				CHANNELS 3 Zrotation Yrotation Xrotation
				JOINT LeftFoot
				{
					OFFSET 2.59288 -7.12389 0.00000
					CHANNELS 3 Zrotation Yrotation Xrotation
					JOINT LeftToeBase
					{
						OFFSET 0.14552 -0.39981 2.13160
						CHANNELS 3 Zrotation Yrotation Xrotation
						End Site
						{
							OFFSET 0.00000 -0.00000 1.09427
						}
					}
				}
			}
		}
	}
	JOINT RHipJoint
	{
		OFFSET 0 0 0
		CHANNELS 3 Zrotation Yrotation Xrotation
		JOINT RightUpLeg
		{
			OFFSET -1.77229 -1.58346 0.87084
			CHANNELS 3 Zrotation Yrotation Xrotation
			JOINT RightLeg
			{
				OFFSET -2.50703 -6.88801 0.00000
				CHANNELS 3 Zrotation Yrotation Xrotation
				JOINT RightFoot
				{
					OFFSET -2.61620 -7.18796 0.00000
					CHANNELS 3 Zrotation Yrotation Xrotation
					JOINT RightToeBase
					{
						OFFSET -0.15190 -0.41735 2.15974
						CHANNELS 3 Zrotation Yrotation Xrotation
						End Site
						{
							OFFSET -0.00000 -0.00000 1.10919
						}
					}
				}
			}
		}
	}
	JOINT LowerBack
	{
		OFFSET 0 0 0
		CHANNELS 3 Zrotation Yrotation Xrotation
		JOINT Spine
		{
			OFFSET -0.03602 2.12423 -0.30249
			CHANNELS 3 Zrotation Yrotation Xrotation
			JOINT Spine1
			{
				OFFSET 0.02717 2.10043 0.12912
				CHANNELS 3 Zrotation Yrotation Xrotation
				JOINT Neck
				{
					OFFSET 0 0 0
					CHANNELS 3 Zrotation Yrotation Xrotation
					JOINT Neck1
					{
						OFFSET -0.06371 1.88656 0.11602
						CHANNELS 3 Zrotation Yrotation Xrotation
						JOINT Head
						{
							OFFSET 0.08208 1.87759 -0.11505
							CHANNELS 3 Zrotation Yrotation Xrotation
							End Site
							{
								OFFSET 0.03382 1.93090 -0.05483
							}
						}
					}
				}
				JOINT LeftShoulder
				{
					OFFSET 0 0 0
					CHANNELS 3 Zrotation Yrotation Xrotation
					JOINT LeftArm
					{
						OFFSET 3.30903 1.40357 0.20156
						CHANNELS 3 Zrotation Yrotation Xrotation
						JOINT LeftForeArm
						{
							OFFSET 5.43301 -0.00000 0.00000
							CHANNELS 3 Zrotation Yrotation Xrotation
							JOINT LeftHand
							{
								OFFSET 3.15936 -0.00000 0.00000
								CHANNELS 3 Zrotation Yrotation Xrotation
								JOINT LeftFingerBase
								{
									OFFSET 0 0 0
									CHANNELS 3 Zrotation Yrotation Xrotation
									JOINT LeftHandIndex1
									{
										OFFSET 0.71283 -0.00000 0.00000
										CHANNELS 3 Zrotation Yrotation Xrotation
										End Site
										{
											OFFSET 0.57470 -0.00000 0.00000
										}
									}
								}
								JOINT LThumb
								{
									OFFSET 0 0 0
									CHANNELS 3 Zrotation Yrotation Xrotation
									End Site
									{
										OFFSET 0.58347 -0.00000 0.58347
									}
								}
							}
						}
					}
				}
				JOINT RightShoulder
				{
					OFFSET 0 0 0
					CHANNELS 3 Zrotation Yrotation Xrotation
					JOINT RightArm
					{
						OFFSET -3.12947 1.60037 -0.00464
						CHANNELS 3 Zrotation Yrotation Xrotation
						JOINT RightForeArm
						{
							OFFSET -5.34194 -0.00000 0.00000
							CHANNELS 3 Zrotation Yrotation Xrotation
							JOINT RightHand
							{
								OFFSET -3.19351 -0.00000 0.00000
								CHANNELS 3 Zrotation Yrotation Xrotation
								JOINT RightFingerBase
								{
									OFFSET 0 0 0
									CHANNELS 3 Zrotation Yrotation Xrotation
									JOINT RightHandIndex1
									{
										OFFSET -0.74386 -0.00000 0.00000
										CHANNELS 3 Zrotation Yrotation Xrotation
										End Site
										{
											OFFSET -0.59972 -0.00000 0.00000
										}
									}
								}
								JOINT RThumb
								{
									OFFSET 0 0 0
									CHANNELS 3 Zrotation Yrotation Xrotation
									End Site
									{
										OFFSET -0.60888 -0.00000 0.60888
									}
								}
							}
						}
					}
				}
			}
		}
	}
}
MOTION
Frames: 7
Frame Time: .0083333
-0.8216 11.5905 11.3362 0 0 0 0 0 0 -21 0 0 0 0 0 0 0 0 0 0 0 0 0 0 21 0 0 0 0 0 0 0 0 0 0 0 0 0 0 0 0 0 0 0 0 0 0 -16 0 0 21 0 0 11 0 0 0 -8 0 0 0 0 0 0 0 0 0 0 0 0 0 0 0 0 0 0 0 0 8 0 0 0 0 0 0 0 0 0 0 0 0 0 0 0 0 0
-0.8216 11.5905 11.3362 -1.7651 1.6319 8.6401 0.0000 0.0000 0.0000 -3.8588 -8.2174 -72.5673 25.8608 19.1557 107.3708 2.9032 6.1249 -34.7618 0.4873 -4.4760 -12.4198 0.0000 0.0000 0.0000 7.5123 13.6229 -71.3515 -26.1712 -19.0613 108.3191 -3.2905 -6.1742 -36.8079 -0.5382 4.7004 -13.0561 -2.6620 1.6872 18.4207 0.8110 1.7415 -3.7520 1.8987 1.0781 -14.8008 -5.8625 -3.3625 -8.5025 5.5970 -4.2890 6.8903 2.4088 -2.0107 3.6879 -0.0000 -0.0000 0.0000 -93.9011 -70.7119 38.5985 85.6547 -59.9285 -56.2377 -0.0000 -0.0000 35.8891 10.4392 2.0025 0.3689 -7.1250 0.0000 -0.0000 -12.9072 31.8393 4.2507 -0.0000 -0.0000 0.0000 37.7948 62.6512 -3.7663 -99.4021 59.6633 -68.1332 0.0000 0.0000 20.8882 1.3844 -13.9917 -0.3348 7.1250 -0.0000 -0.0000 25.6519 -42.4037 1.7718
-0.8178 11.5931 11.3360 -1.7823 1.6039 8.6603 0.0000 0.0000 0.0000 -3.8635 -8.1941 -72.5795 25.8539 19.1578 107.3497 2.8975 6.1699 -34.7530 0.5083 -4.5703 -12.6870 0.0000 0.0000 0.0000 7.5085 13.6537 -71.3567 -26.1602 -19.0647 108.2854 -3.2842 -6.2047 -36.7900 -0.5411 4.7132 -13.0923 -2.6406 1.6777 18.4239 0.8200 1.7351 -3.7394 1.8987 1.0736 -14.7867 -5.8840 -3.3549 -8.5446 5.6189 -4.2759 6.8877 2.4193 -2.0031 3.6943 0.0000 -0.0000 0.0000 -93.8490 -70.7857 38.5239 85.6091 -59.9270 -56.1983 -0.0000 -0.0000 35.8786 10.3534 1.9957 0.3645 -7.1250 0.0000 -0.0000 -12.9737 31.8300 4.2766 0.0000 -0.0000 0.0000 37.7377 62.7035 -3.8395 -99.3664 59.6659 -68.1024 0.0000 0.0000 20.8767 1.3982 -13.9650 -0.3375 7.1250 -0.0000 -0.0000 25.6530 -42.3782 1.7894
-0.8142 11.5969 11.3365 -1.7346 1.6037 8.6791 0.0000 0.0000 0.0000 -3.9374 -8.2246 -72.5133 25.8390 19.1621 107.3044 2.9233 6.0222 -34.8198 0.5366 -4.6939 -13.0375 0.0000 0.0000 0.0000 7.4365 13.6240 -71.3615 -26.1520 -19.0673 108.2602 -3.2797 -6.2161 -36.7725 -0.5427 4.7198 -13.1112 -2.6730 1.6674 18.4260 0.8080 1.7117 -3.7349 1.9109 1.0649 -14.7820 -5.8747 -3.3551 -8.5466 5.6078 -4.2759 6.8816 2.4143 -2.0034 3.6923 -0.0000 0.0000 0.0000 -93.8066 -70.8605 38.4944 85.5551 -59.9252 -56.1516 -0.0000 -0.0000 35.8652 10.3572 1.9669 0.3594 -7.1250 0.0000 -0.0000 -12.9666 31.8016 4.2833 -0.0000 0.0000 0.0000 37.6877 62.7266 -3.9071 -99.3427 59.6676 -68.0820 0.0000 0.0000 20.8537 1.4139 -13.9904 -0.3419 7.1250 -0.0000 -0.0000 25.6760 -42.3995 1.7766
-0.8078 11.6021 11.3400 -1.7413 1.4988 8.6523 0.0000 0.0000 0.0000 -3.9989 -8.1233 -72.4474 25.8286 19.1652 107.2728 2.9220 6.0659 -34.8340 0.5345 -4.6847 -13.0113 0.0000 0.0000 0.0000 7.4171 13.7017 -71.2751 -26.1341 -19.0729 108.2055 -3.2800 -6.2037 -36.7681 -0.5435 4.7234 -13.1214 -2.6508 1.6897 18.4156 0.7993 1.7461 -3.7038 1.8780 1.0773 -14.7395 -5.8652 -3.3510 -8.5660 5.6113 -4.2709 6.8813 2.4139 -2.0002 3.6950 -0.0000 -0.0000 0.0000 -93.7907 -70.9103 38.4839 85.5533 -59.9252 -56.1500 -0.0000 -0.0000 35.8911 10.3656 1.9506 0.3567 -7.1250 0.0000 -0.0000 -12.9575 31.7858 4.2852 -0.0000 -0.0000 0.0000 37.6490 62.7617 -3.9771 -99.3247 59.6689 -68.0664 0.0000 0.0000 20.8828 1.4407 -13.9904 -0.3484 7.1250 -0.0000 -0.0000 25.6984 -42.3967 1.7803
-0.8042 11.6043 11.3396 -1.7323 1.4856 8.6583 0.0000 0.0000 0.0000 -4.0340 -8.1181 -72.4415 25.8214 19.1673 107.2507 2.9209 6.0671 -34.8287 0.5491 -4.7473 -13.1892 0.0000 0.0000 0.0000 7.3865 13.7053 -71.2691 -26.1265 -19.0752 108.1823 -3.2775 -6.2050 -36.7563 -0.5441 4.7259 -13.1284 -2.6493 1.6841 18.4336 0.7981 1.7382 -3.6951 1.8781 1.0733 -14.7395 -5.8628 -3.3487 -8.5707 5.6128 -4.2678 6.8749 2.4142 -1.9985 3.6936 0.0000 0.0000 0.0000 -93.7695 -70.9614 38.4670 85.5348 -59.9245 -56.1340 -0.0000 -0.0000 35.9014 10.3637 1.9452 0.3557 -7.1250 0.0000 -0.0000 -12.9582 31.7803 4.2872 0.0000 0.0000 0.0000 37.6026 62.7906 -4.0408 -99.2964 59.6709 -68.0420 0.0000 0.0000 20.8934 1.4340 -13.9865 -0.3466 7.1250 -0.0000 -0.0000 25.6911 -42.3939 1.7817
-0.8011 11.6054 11.3384 -1.7267 1.4863 8.6663 0.0000 0.0000 0.0000 -4.0586 -8.1194 -72.4533 25.8172 19.1685 107.2381 2.9180 6.0709 -34.8152 0.5625 -4.8038 -13.3498 0.0000 0.0000 0.0000 7.3598 13.7022 -71.2754 -26.1214 -19.0768 108.1665 -3.2750 -6.2044 -36.7430 -0.5450 4.7299 -13.1396 -2.6461 1.6759 18.4587 0.8002 1.7276 -3.6910 1.8815 1.0683 -14.7491 -5.8591 -3.3480 -8.5648 5.6106 -4.2671 6.8673 2.4131 -1.9982 3.6902 -0.0000 -0.0000 0.0000 -93.7610 -71.0030 38.4650 85.5216 -59.9241 -56.1226 -0.0000 -0.0000 35.9123 10.3777 1.9452 0.3562 -7.1250 0.0000 -0.0000 -12.9472 31.7807 4.2833 -0.0000 -0.0000 0.0000 37.5582 62.8125 -4.0964 -99.2692 59.6728 -68.0185 0.0000 0.0000 20.9058 1.4029 -13.9814 -0.3390 7.1250 -0.0000 -0.0000 25.6633 -42.3925 1.7804
